# xmcd
#
# Track frame offsets:
#	150
#	17158
#	39354
#	54521
#	71735
#	89119
#	104627
#	120135
#	139910
#	157806
#	175190
#	191379
#	209275
#	271200
#
# Disc length: 3850 seconds
#
# Revision: 1
# Processed by: cddbd v1.4PL0 Copyright (c) Steve Scherf et al.
# Submitted via: audiograbber 1.82.02
#
DISCID=bf0f080e
DTITLE=Britney Spears - In the zone
DYEAR=2003
DGENRE=Blues
TTITLE0=Me against the music
TTITLE1=(Igot that)boom boom
TTITLE2=Showdown
TTITLE3=Breathe on me
TTITLE4=Early mornin
TTITLE5=Toxic
TTITLE6=Outrageous
TTITLE7=Touch of my hand
TTITLE8=The hook up
TTITLE9=Shadow
TTITLE10=Brave new girl
TTITLE11=Everytime
TTITLE12=Me against the music(remix)
TTITLE13=The answer(bonus track)
EXTD=
EXTT0=
EXTT1=
EXTT2=
EXTT3=
EXTT4=
EXTT5=
EXTT6=
EXTT7=
EXTT8=
EXTT9=
EXTT10=
EXTT11=
EXTT12=
EXTT13=
PLAYORDER=
